<?xml version="1.0" encoding="UTF-8"?>
<!DOCTYPE svg PUBLIC "-//W3C//DTD SVG 1.1//EN" "http://www.w3.org/Graphics/SVG/1.1/DTD/svg11.dtd">
<!-- Creator: CorelDRAW X8 -->
<svg xmlns="http://www.w3.org/2000/svg" xml:space="preserve" width="100.578mm" height="45.9764mm" version="1.1" style="shape-rendering:geometricPrecision; text-rendering:geometricPrecision; image-rendering:optimizeQuality; fill-rule:evenodd; clip-rule:evenodd"
viewBox="0 0 40399 18467"
 xmlns:xlink="http://www.w3.org/1999/xlink">
 <defs>
  <style type="text/css">
   <![CDATA[
    .fil1 {fill:#00BBFF}
    .fil0 {fill:#060073}
    .fil2 {fill:#31BD4B}
   ]]>
  </style>
 </defs>
 <g id="Camada_x0020_1">
  <metadata id="CorelCorpID_0Corel-Layer"/>
  <g id="_1874002593856">
   <path class="fil0" d="M3585 14867l0 -2658c0,-82 -45,-126 -127,-126l-990 0c-83,0 -127,44 -127,126l0 2683c0,410 -195,624 -549,624 -367,0 -549,-214 -549,-624l0 -2683c0,-82 -45,-126 -127,-126l-990 0c-82,0 -126,44 -126,126l0 2658c0,1186 618,1817 1792,1817 1167,0 1793,-631 1793,-1817l0 0 0 0zm-663 3428c61,0 114,-11 158,-31 44,-21 90,-54 138,-99l114 117c-111,123 -246,185 -405,185 -158,0 -290,-51 -394,-153 -105,-102 -157,-232 -157,-387 0,-157 53,-286 160,-390 106,-104 241,-157 403,-157 163,0 300,60 407,180l-112 123c-50,-48 -96,-81 -142,-100 -43,-19 -96,-29 -156,-29 -106,0 -195,34 -267,103 -73,69 -108,156 -108,263 0,107 35,196 107,268 72,70 156,107 254,107l0 0 0 0zm1302 -889l0 166 -561 0 0 278 503 0 0 157 -503 0 0 281 578 0 0 166 -755 0 0 -1048 738 0 0 0zm968 0l178 0 0 1048 -193 0 -595 -765 0 765 -176 0 0 -1048 176 0 610 784 0 -784 0 0zm803 161l0 887 -177 0 0 -887 -319 0 0 -161 814 0 0 161 -318 0zm1286 180c0,173 -76,282 -227,327l274 380 -225 0 -250 -352 -232 0 0 352 -179 0 0 -1048 390 0c162,0 276,27 345,81 68,54 104,141 104,260l0 0 0 0zm-440 195c100,0 167,-16 204,-47 36,-31 53,-81 53,-149 0,-69 -17,-116 -55,-141 -37,-26 -103,-38 -197,-38l-225 0 0 375 220 0 0 0zm1381 -288c-72,-75 -159,-112 -263,-112 -104,0 -193,37 -264,112 -71,73 -108,164 -108,269 0,106 37,195 108,268 71,76 160,113 264,113 104,0 191,-38 263,-113 71,-73 107,-162 107,-268 0,-105 -36,-195 -107,-269zm129 656c-105,104 -236,155 -392,155 -157,0 -288,-51 -394,-155 -106,-103 -158,-233 -158,-387 0,-155 52,-283 158,-387 106,-104 237,-156 394,-156 156,0 287,52 392,156 107,104 159,232 159,387 0,154 -52,284 -159,387zm797 -96c49,57 114,85 195,85 83,0 147,-28 195,-85 49,-55 73,-132 73,-227l0 -581 177 0 0 589c0,150 -42,266 -125,348 -83,82 -189,122 -320,122 -129,0 -237,-40 -319,-122 -83,-82 -124,-198 -124,-348l0 -589 176 0 0 581c0,95 24,172 72,227l0 0zm1641 -808l179 0 0 1048 -193 0 -595 -765 0 765 -176 0 0 -1048 176 0 609 784 0 -784 0 0 0 0zm407 0l178 0 0 1048 -178 0 0 -1048zm885 1048l-198 0 -421 -1048 198 0 322 784 323 -784 197 0 -421 1048zm1247 -1048l0 166 -560 0 0 278 503 0 0 157 -503 0 0 281 578 0 0 166 -755 0 0 -1048 737 0 0 0zm1021 341c0,173 -77,282 -227,327l274 380 -225 0 -250 -352 -232 0 0 352 -179 0 0 -1048 390 0c161,0 276,27 345,81 68,54 104,141 104,260l0 0 0 0zm-441 195c101,0 168,-16 205,-47 35,-31 53,-81 53,-149 0,-69 -18,-116 -56,-141 -36,-26 -102,-38 -196,-38l-225 0 0 375 219 0 0 0zm951 -398c-52,0 -95,10 -127,32 -33,20 -50,52 -50,95 0,43 17,75 50,97 32,23 103,48 210,73 109,26 189,62 244,110 54,47 81,116 81,208 0,90 -34,165 -102,223 -70,56 -160,85 -273,85 -164,0 -310,-56 -436,-170l111 -133c105,92 216,138 330,138 57,0 103,-12 135,-37 34,-25 51,-57 51,-98 0,-39 -17,-71 -47,-94 -31,-23 -86,-43 -163,-61 -78,-19 -136,-36 -176,-52 -40,-15 -75,-35 -106,-61 -62,-46 -94,-119 -94,-216 0,-97 36,-172 107,-223 70,-53 157,-80 261,-80 68,0 135,11 200,34 66,21 123,52 171,93l-94 133c-31,-28 -73,-51 -127,-69 -53,-18 -105,-27 -156,-27l0 0zm566 -138l177 0 0 1048 -177 0 0 -1048zm802 161l0 887 -177 0 0 -887 -319 0 0 -161 814 0 0 161 -318 0zm507 650l-105 237 -189 0 462 -1048 190 0 462 1048 -190 0 -105 -237 -525 0 0 0zm453 -164l-191 -433 -191 433 382 0 0 0zm-109 -736l-154 0 159 -217 178 73 -183 144 0 0zm1486 430c0,173 -75,282 -226,327l275 380 -225 0 -251 -352 -232 0 0 352 -178 0 0 -1048 391 0c160,0 274,27 343,81 69,54 104,141 104,260l-1 0 0 0zm-439 195c100,0 168,-16 204,-47 36,-31 55,-81 55,-149 0,-69 -19,-116 -56,-141 -38,-26 -104,-38 -198,-38l-226 0 0 375 221 0 0 0 0 0zm633 -536l176 0 0 1048 -176 0 0 -1048zm1155 248c-72,-75 -160,-112 -264,-112 -104,0 -192,37 -263,112 -72,73 -109,164 -109,269 0,106 37,195 109,268 71,75 159,113 263,113 104,0 192,-38 264,-113 71,-73 107,-162 107,-268 0,-105 -36,-195 -107,-269zm129 656c-106,104 -237,155 -393,155 -156,0 -288,-51 -394,-155 -105,-103 -159,-233 -159,-387 0,-155 54,-283 159,-387 106,-104 238,-156 394,-156 156,0 287,52 393,156 106,104 159,232 159,387 0,154 -53,284 -159,387zm922 -904c188,0 332,45 433,137 101,91 152,219 152,382 0,162 -49,292 -146,387 -99,95 -249,142 -451,142l-349 0 0 -1048 361 0 0 0 0 0zm406 523c0,-240 -137,-360 -412,-360l-177 0 0 719 196 0c127,0 225,-30 293,-91 67,-60 100,-149 100,-268zm1082 -523l0 166 -560 0 0 278 503 0 0 157 -503 0 0 281 578 0 0 166 -755 0 0 -1048 737 0 0 0zm791 0l177 0 0 691c0,123 -31,215 -93,275 -61,61 -142,92 -238,92 -123,0 -227,-43 -312,-130l99 -139c69,66 136,97 201,97 46,0 85,-14 117,-46 33,-31 49,-77 49,-139l0 -701 0 0zm632 808c49,57 114,85 196,85 82,0 148,-28 194,-85 49,-55 73,-132 73,-227l0 -581 178 0 0 589c0,150 -43,266 -125,348 -83,82 -189,122 -320,122 -130,0 -236,-40 -320,-122 -83,-82 -124,-198 -124,-348l0 -589 176 0 0 581c0,95 25,172 72,227l0 0zm919 3l-105 237 -190 0 463 -1048 189 0 462 1048 -189 0 -104 -237 -526 0 0 0 0 0zm453 -164l-190 -433 -191 433 381 0 0 0zm1046 -486l-592 0 0 -161 838 0 0 138 -610 743 0 5 619 0 0 162 -866 0 0 -135 611 -747 0 -4 0 0 0 -1zm1152 -161l0 166 -560 0 0 278 503 0 0 157 -503 0 0 281 578 0 0 166 -755 0 0 -1048 737 0 0 0 0 0zm182 0l177 0 0 1048 -177 0 0 -1048zm1244 341c0,173 -75,282 -226,327l274 380 -225 0 -251 -352 -232 0 0 352 -177 0 0 -1048 390 0c159,0 275,27 344,81 69,54 103,141 103,260l0 0 0 0zm-440 195c100,0 169,-16 204,-47 37,-31 55,-81 55,-149 0,-69 -18,-116 -56,-141 -36,-26 -103,-38 -198,-38l-225 0 0 375 220 0 0 0 0 0zm1381 -288c-71,-75 -158,-112 -262,-112 -104,0 -193,37 -264,112 -72,73 -108,164 -108,269 0,106 36,195 108,268 71,75 160,113 264,113 104,0 191,-37 262,-113 72,-73 108,-162 108,-268 0,-105 -36,-195 -108,-269zm130 656c-105,104 -237,155 -392,155 -157,0 -288,-51 -394,-155 -106,-103 -160,-233 -160,-387 0,-155 54,-283 160,-387 106,-104 237,-156 394,-156 155,0 287,52 392,156 106,104 160,232 160,387 0,154 -54,284 -160,387zm922 -904c189,0 333,46 434,137 101,91 151,219 151,382 0,162 -49,292 -147,387 -97,95 -249,142 -450,142l-348 0 0 -1048 360 0 0 0 0 0zm407 523c0,-240 -138,-360 -412,-360l-179 0 0 719 198 0c126,0 224,-30 291,-91 68,-60 102,-149 102,-268zm1093 -275c-72,-75 -160,-112 -264,-112 -104,0 -192,37 -263,112 -71,73 -107,164 -107,269 0,106 36,195 107,268 71,75 159,113 263,113 104,0 192,-37 264,-113 72,-73 107,-162 107,-268 0,-105 -35,-195 -107,-269zm130 656c-107,104 -237,155 -394,155 -155,0 -288,-51 -392,-155 -107,-103 -160,-233 -160,-387 0,-155 53,-283 160,-387 104,-104 237,-156 392,-156 157,0 287,52 394,156 105,104 159,232 159,387 0,154 -54,284 -159,387zm1347 -904l178 0 0 1048 -194 0 -593 -765 0 765 -177 0 0 -1048 177 0 609 784 0 -784 0 0zm1154 248c-70,-75 -159,-112 -263,-112 -104,0 -191,37 -263,112 -72,73 -107,164 -107,269 0,106 35,195 107,268 72,75 159,113 263,113 104,0 193,-38 263,-113 72,-73 107,-162 107,-268 0,-105 -35,-195 -107,-269zm130 656c-105,104 -237,155 -393,155 -156,0 -286,-51 -392,-155 -107,-103 -160,-233 -160,-387 0,-155 53,-283 160,-387 106,-104 236,-156 392,-156 156,0 288,52 393,156 106,104 160,232 160,387 0,154 -54,284 -160,387zm1159 -563c0,173 -76,282 -227,327l275 380 -225 0 -251 -352 -232 0 0 352 -177 0 0 -1048 390 0c160,0 274,27 343,81 69,54 104,141 104,260l0 0 0 0zm-440 195c100,0 168,-16 204,-47 36,-31 53,-81 53,-149 0,-69 -17,-116 -54,-141 -38,-26 -104,-38 -198,-38l-225 0 0 375 220 0 0 0zm1014 -375l0 887 -177 0 0 -887 -318 0 0 -161 813 0 0 161 -318 0zm1185 -161l0 166 -559 0 0 278 502 0 0 157 -502 0 0 281 577 0 0 166 -755 0 0 -1048 737 0 0 0zm-24504 -2489l0 -2708c0,-82 -44,-126 -126,-126l-984 0c-83,0 -127,44 -127,126l0 2727c0,416 -151,587 -492,587 -240,0 -461,-75 -644,-202 -69,-50 -132,-44 -176,31l-474 739c-44,63 -37,126 31,170 417,290 828,423 1307,423 1067,0 1685,-637 1685,-1767l0 0 0 0zm-8073 1679c83,0 127,-45 127,-127l0 -605c0,-569 -58,-1244 -140,-1856l26 -7c120,354 461,1137 776,1674l499 833c32,57 82,87 150,87l1011 0c82,0 126,-44 126,-126l0 -4260c0,-82 -44,-126 -126,-126l-965 0c-83,0 -127,44 -127,126l0 776c0,518 25,1073 81,1667l-24 7c-101,-291 -397,-922 -713,-1528l-505 -959c-32,-64 -76,-89 -146,-89l-1016 0c-82,0 -126,44 -126,126l0 4260c0,82 44,126 126,126l966 0 0 1 0 0zm4633 -4387c0,-82 -44,-126 -127,-126l-977 0c-83,0 -127,44 -127,126l0 4260c0,82 44,127 127,127l977 0c83,0 127,-45 127,-127l0 -4260zm7778 2658l0 -2658c0,-82 -46,-126 -127,-126l-991 0c-82,0 -126,44 -126,126l0 2683c0,410 -196,624 -550,624 -366,0 -549,-214 -549,-624l0 -2683c0,-82 -43,-126 -127,-126l-990 0c-82,0 -126,44 -126,126l0 2658c0,1186 618,1817 1792,1817 1169,0 1794,-631 1794,-1817l0 0zm1279 1729c70,0 125,-33 146,-108l178 -619 1368 0 171 619c21,75 75,108 145,108l1041 0c89,0 131,-57 101,-145l-1426 -4267c-23,-70 -69,-101 -139,-101l-1161 0c-70,0 -116,31 -139,101l-1426 4267c-30,88 12,145 101,145l1040 0 0 0 0 0zm992 -3175l25 0 379 1408 -777 0 373 -1408zm5928 3175c81,0 126,-45 126,-127l0 -896c0,-82 -45,-125 -126,-125l-1692 0 1710 -2501c33,-50 51,-100 51,-157l0 -581c0,-82 -44,-126 -126,-126l-3080 0c-82,0 -127,44 -127,126l0 890c0,82 45,126 127,126l1527 0 -1742 2481c-31,51 -50,100 -50,158l0 605c0,82 43,127 126,127l3276 0 0 0 0 0zm1989 -1743l1388 0c81,0 127,-44 127,-126l0 -827c0,-81 -46,-126 -127,-126l-1388 0 0 -586 1635 0c81,0 125,-44 125,-127l0 -852c0,-82 -44,-126 -125,-126l-2740 0c-82,0 -127,44 -127,126l0 4260c0,82 45,127 127,127l2743 0c82,0 126,-45 126,-127l0 -851c0,-83 -44,-127 -126,-127l-1638 0 0 -638 0 0 0 0zm3749 -2644c0,-82 -45,-126 -127,-126l-978 0c-82,0 -126,44 -126,126l0 4260c0,82 44,127 126,127l978 0c82,0 127,-45 127,-127l0 -4260zm4274 4387c100,0 132,-64 81,-152l-883 -1444c518,-247 795,-702 795,-1327 0,-959 -612,-1590 -1710,-1590l-1603 0c-83,0 -127,44 -127,126l0 4260c0,82 44,127 127,127l977 0c83,0 127,-45 127,-127l0 -1268 271 0 682 1307c32,63 76,88 146,88l1117 0 0 0 0 0zm-1781 -3377c360,0 505,152 505,461 0,328 -145,467 -505,467l-435 0 0 -928 435 0zm6092 1628l0 -1028c0,-1149 -701,-1825 -1894,-1825 -1193,0 -1893,676 -1893,1825l0 1028c0,1155 700,1837 1893,1837 1193,0 1894,-682 1894,-1837zm-2525 -31l0 -966c0,-454 209,-688 631,-688 424,0 632,234 632,688l0 966c0,461 -208,700 -632,700 -422,0 -631,-239 -631,-700z"/>
   <path class="fil0" d="M19377 9405c-369,-568 -521,-1069 -507,-1758l-2 -5336c0,-28 -12,-58 -29,-81 -17,-24 -39,-42 -62,-48l-3259 -871c-7,-2 -12,-2 -16,-2 -6,-2 -11,1 -16,4 -5,4 -9,11 -12,20 -1,5 -2,12 -2,19 1,1873 5,3474 5,5347 0,32 0,64 0,96 95,1588 1268,2721 2854,2779 357,6 710,-50 1046,-168l0 0 0 0 0 -1z"/>
   <path class="fil1" d="M24925 2727c0,-28 -12,-57 -29,-81 -17,-24 -40,-41 -62,-48l-3262 -900c-8,-2 -13,-4 -18,-4 -22,0 -28,26 -28,45l-1 4649 0 2 0 0c-1,161 -1,280 -1,314 0,1180 -756,2306 -1822,2799 -318,147 -664,240 -1022,272l-3 1c895,247 1788,503 2685,738 1790,437 3593,-1017 3563,-2828 0,-1653 0,-3306 0,-4959l0 0 0 0z"/>
   <path class="fil2" d="M24925 1034c0,-51 -41,-115 -91,-129l-3262 -902c-8,-2 -13,-3 -18,-3 -22,0 -28,25 -28,44 0,114 -1,368 -1,483 0,28 11,57 28,82 18,23 39,40 63,47l258 70 3005 834c6,2 12,3 16,3 23,0 29,-25 30,-44 -1,-115 0,-370 0,-485l0 0 0 0z"/>
   <path class="fil2" d="M24925 1882c0,-51 -41,-116 -91,-130l-3262 -902c-8,-2 -13,-3 -18,-3 -22,0 -28,24 -28,44 0,116 -1,391 -1,506 0,28 11,35 28,60 18,22 39,41 63,46l258 70 3005 834c6,3 12,4 16,4 23,0 29,-26 30,-44 -1,-116 0,-370 0,-485l0 0z"/>
  </g>
 </g>
</svg>
